<?xml version="1.0" encoding="UTF-8" standalone="no"?>
<!-- Created with Inkscape (http://www.inkscape.org/) -->

<svg
   width="206.6772mm"
   height="175.98201mm"
   viewBox="0 0 206.6772 175.98201"
   version="1.1"
   id="svg1"
   xmlns="http://www.w3.org/2000/svg"
   xmlns:svg="http://www.w3.org/2000/svg">
  <defs
     id="defs1">
    <mask
       maskUnits="userSpaceOnUse"
       id="mask-powermask-path-effect6">
      <path
         id="mask-powermask-path-effect6_box"
         style="fill:#ffffff;fill-opacity:1"
         d="m -158.72316,147.5 h 107.446312 v 58.80495 H -158.72316 Z" />
      <rect
         style="fill:#000000;stroke-width:0.296042"
         id="rect6"
         width="21.73822"
         height="40.498138"
         x="94.13089"
         y="167.60652"
         transform="scale(-1,1)"
         d="m 94.13089,167.60652 h 21.73822 v 40.49814 H 94.13089 Z" />
    </mask>
  </defs>
  <g
     id="layer1"
     transform="translate(-1.661407,-60.509001)">
    <path
       style="mix-blend-mode:normal;fill:#ffffff;stroke-width:0.234097"
       id="rect1"
       width="105.44631"
       height="56.804947"
       x="-157.72316"
       y="148.5"
       transform="matrix(-1.5490025,0,0,1.5490025,-57.645261,-81.526867)"
       mask="url(#mask-powermask-path-effect6)"
       d="m -157.72316,148.5 h 105.446312 v 56.80495 H -157.72316 Z" />
  </g>
  <g
     id="layer4"
     transform="translate(-1.661407,-60.509001)">
    <rect
       style="fill:#ffffff;stroke-width:0.40984"
       id="rect3"
       width="163.33659"
       height="28.848125"
       x="23.331705"
       y="138.4044" />
    <path
       style="fill:#ffffff;stroke-width:0.264583"
       id="path1"
       d="m 48.236633,81.336477 -29.528415,0 -29.528416,0 L 3.9440095,55.76412 18.708218,30.191761 33.472425,55.764119 Z"
       transform="matrix(3.4996323,0,0,1.7204318,39.528122,8.5661357)" />
    <rect
       style="fill:#ffffff;stroke-width:0.475922"
       id="rect2-3"
       width="33.672558"
       height="67.569901"
       x="146.35191"
       y="74.980766" />
  </g>
</svg>
